<svg xmlns="http://www.w3.org/2000/svg" width="108" height="108" viewBox="0 0 108 108">
  <defs>
    <linearGradient id="softmusic-gradient" x1="14" y1="16" x2="92" y2="90" gradientUnits="userSpaceOnUse">
      <stop offset="0" stop-color="#FF3D81"/>
      <stop offset="0.28" stop-color="#FFB000"/>
      <stop offset="0.55" stop-color="#28E66D"/>
      <stop offset="0.78" stop-color="#18B8FF"/>
      <stop offset="1" stop-color="#7C4DFF"/>
    </linearGradient>
  </defs>
  <rect width="108" height="108" fill="#080A08"/>
  <path d="M54,10C29.7,10 10,29.7 10,54s19.7,44 44,44 44,-19.7 44,-44S78.3,10 54,10z" fill="url(#softmusic-gradient)"/>
  <path d="M39,30h10v34.5c0,6.4 -5.5,11.5 -12.5,11.5S24,70.9 24,64.5 29.5,53 36.5,53c2,0 3.8,0.4 5.5,1.2V30z" fill="#E6E8EF"/>
  <path d="M49,30h29v10H49z" fill="#E6E8EF"/>
  <path d="M68,30h10v43c0,6.1 -5.6,11 -12.5,11S53,79.1 53,73 58.6,62 65.5,62c1.9,0 3.7,0.4 5.5,1.1V30z" fill="#E6E8EF"/>
</svg>
